# xmcd
#
# Track frame offsets:
#	182
#	9432
#	24082
#	37255
#	47777
#	58835
#	73175
#	84997
#	96425
#	107980
#	123342
#	136172
#	148087
#	158915
#	173012
#	186512
#	199650
#	210412
#
# Disc length: 2980 seconds
#
# Revision: 1
# Processed by: cddbd v1.5.1PL2 Copyright (c) Steve Scherf et al.
# Submitted via: audiograbber 1.83.01
#
DISCID=020ba212
DTITLE=Frankie Laine - Legends
DYEAR=1900
DGENRE=Cult
TTITLE0=Rawhide
TTITLE1=Jealousy
TTITLE2=Moonlight Gambler
TTITLE3=I Believe
TTITLE4=Hummingbird
TTITLE5=Don't Fence Me In
TTITLE6=Strange Lady In Town
TTITLE7=Rose, Rose I Love You
TTITLE8=Answer Me
TTITLE9=Jezebel
TTITLE10=High Noon (Do Not Forsake Me)
TTITLE11=Mule Train
TTITLE12=Sixteen Tons
TTITLE13=Cool Water
TTITLE14=Wheel Of Fortune
TTITLE15=Rain, Rain, Rain
TTITLE16=A Woman In Love
TTITLE17=Cry Of The Wild Goose
EXTD=
EXTT0=
EXTT1=
EXTT2=
EXTT3=
EXTT4=
EXTT5=
EXTT6=
EXTT7=
EXTT8=
EXTT9=
EXTT10=
EXTT11=
EXTT12=
EXTT13=
EXTT14=
EXTT15=
EXTT16=
EXTT17=
PLAYORDER=
